<svg xmlns="http://www.w3.org/2000/svg" viewBox="0 0 320 240" role="img" aria-label="Dairy cow">
  <rect width="320" height="240" fill="#0f172a"/>
  <circle cx="250" cy="34" r="90" fill="#22c55e" opacity=".22"/>
  <circle cx="58" cy="206" r="110" fill="#0ea5e9" opacity=".16"/>
  <path d="M65 139c0-47 38-85 85-85h25c47 0 85 38 85 85v42H65v-42Z" fill="#f8fafc"/>
  <path d="M85 111c14-15 38-15 52 1 13 15 13 39-1 54H83c-12-17-11-40 2-55Z" fill="#111827"/>
  <path d="M187 72c18 4 33 18 39 36 8 25-5 53-29 63h-43c-19-17-23-45-10-67 9-16 25-28 43-32Z" fill="#111827"/>
  <circle cx="126" cy="105" r="8" fill="#0f172a"/>
  <circle cx="196" cy="105" r="8" fill="#0f172a"/>
  <path d="M138 135h48c8 0 15 7 15 15s-7 15-15 15h-48c-8 0-15-7-15-15s7-15 15-15Z" fill="#f4c2c2"/>
  <circle cx="148" cy="151" r="4" fill="#7f1d1d"/>
  <circle cx="176" cy="151" r="4" fill="#7f1d1d"/>
</svg>
